<svg xmlns="http://www.w3.org/2000/svg" viewBox="150 418.16 700 163.69"><defs/><path id="text" fill="#6dcea1" transform="matrix(2.368193136299664 0 0 2.368193136299664 -10.457940889899318 161.4160441701851)" d="M 83.49942857143 174.41142857143 C 77.99542857143 172.33142857143 73.22742857143 169.33942857143 69.19542857143 165.43542857143 C 68.23542857143 164.47542857143 67.75542857143 163.38742857143 67.75542857143 162.17142857143 C 67.75542857143 160.76342857143 68.39542857143 159.41942857143 69.67542857143 158.13942857143 C 70.69942857143 157.11542857143 71.81942857143 156.60342857143 73.03542857143 156.60342857143 C 74.31542857143 156.60342857143 75.85142857143 157.33942857143 77.64342857143 158.81142857143 C 80.65142857143 161.56342857143 84.21942857143 163.69142857143 88.34742857143 165.19542857143 C 92.47542857143 166.69942857143 96.74742857143 167.45142857143 101.16342857143 167.45142857143 C 105.38742857143 167.45142857143 108.68342857143 166.73142857143 111.05142857143 165.29142857143 C 113.41942857143 163.85142857143 114.60342857143 161.81942857143 114.60342857143 159.19542857143 C 114.60342857143 156.44342857143 113.32342857143 154.21942857143 110.76342857143 152.52342857143 C 108.20342857143 150.82742857143 103.85142857143 149.30742857143 97.70742857143 147.96342857143 C 88.04342857143 145.85142857143 81.01942857143 143.06742857143 76.63542857143 139.61142857143 C 72.25142857143 136.15542857143 70.05942857143 131.70742857143 70.05942857143 126.26742857143 C 70.05942857143 122.81142857143 71.21142857143 119.72342857143 73.51542857143 117.00342857143 C 75.81942857143 114.28342857143 79.03542857143 112.17142857143 83.16342857143 110.66742857143 C 87.29142857143 109.16342857143 92.01142857143 108.41142857143 97.32342857143 108.41142857143 C 103.27542857143 108.41142857143 108.57142857143 109.38742857143 113.21142857143 111.33942857143 C 117.85142857143 113.29142857143 121.38742857143 116.02742857143 123.81942857143 119.54742857143 C 124.65142857143 120.89142857143 125.06742857143 122.04342857143 125.06742857143 123.00342857143 C 125.00342857143 124.60342857143 124.20342857143 125.97942857143 122.66742857143 127.13142857143 C 121.83542857143 127.70742857143 120.87542857143 127.99542857143 119.78742857143 127.99542857143 C 117.80342857143 127.99542857143 116.17142857143 127.22742857143 114.89142857143 125.69142857143 C 113.03542857143 123.45142857143 110.55542857143 121.69142857143 107.45142857143 120.41142857143 C 104.34742857143 119.13142857143 100.97142857143 118.49142857143 97.32342857143 118.49142857143 C 92.77942857143 118.49142857143 89.24342857143 119.17942857143 86.71542857143 120.55542857143 C 84.18742857143 121.93142857143 82.92342857143 123.83542857143 82.92342857143 126.26742857143 C 82.92342857143 128.69942857143 84.15542857143 130.69942857143 86.61942857143 132.26742857143 C 89.08342857143 133.83542857143 93.35542857143 135.32342857143 99.43542857143 136.73142857143 C 106.15542857143 138.33142857143 111.56342857143 140.13942857143 115.65942857143 142.15542857143 C 119.75542857143 144.17142857143 122.74742857143 146.55542857143 124.63542857143 149.30742857143 C 126.52342857143 152.05942857143 127.46742857143 155.35542857143 127.46742857143 159.19542857143 C 127.46742857143 162.84342857143 126.37942857143 166.05942857143 124.20342857143 168.84342857143 C 122.02742857143 171.62742857143 118.95542857143 173.77142857143 114.98742857143 175.27542857143 C 111.01942857143 176.77942857143 106.41142857143 177.53142857143 101.16342857143 177.53142857143 C 94.89142857143 177.53142857143 89.00342857143 176.49142857143 83.49942857143 174.41142857143 Z M 138.45942857143 120.65142857143 C 137.01942857143 119.33942857143 136.29942857143 117.62742857143 136.29942857143 115.51542857143 C 136.29942857143 113.40342857143 137.01942857143 111.69142857143 138.45942857143 110.37942857143 C 139.89942857143 109.06742857143 141.80342857143 108.41142857143 144.17142857143 108.41142857143 C 146.53942857143 108.41142857143 148.47542857143 109.06742857143 149.97942857143 110.37942857143 C 151.48342857143 111.69142857143 152.23542857143 113.40342857143 152.23542857143 115.51542857143 C 152.23542857143 117.62742857143 151.48342857143 119.33942857143 149.97942857143 120.65142857143 C 148.47542857143 121.96342857143 146.53942857143 122.61942857143 144.17142857143 122.61942857143 C 141.80342857143 122.61942857143 139.89942857143 121.96342857143 138.45942857143 120.65142857143 Z M 139.65942857143 175.99542857143 C 138.57142857143 174.97142857143 138.02742857143 173.56342857143 138.02742857143 171.77142857143 L 138.02742857143 134.33142857143 C 138.02742857143 132.53942857143 138.57142857143 131.13142857143 139.65942857143 130.10742857143 C 140.74742857143 129.08342857143 142.28342857143 128.57142857143 144.26742857143 128.57142857143 C 146.18742857143 128.57142857143 147.72342857143 129.08342857143 148.87542857143 130.10742857143 C 150.02742857143 131.13142857143 150.60342857143 132.53942857143 150.60342857143 134.33142857143 L 150.60342857143 171.77142857143 C 150.60342857143 173.56342857143 150.02742857143 174.97142857143 148.87542857143 175.99542857143 C 147.72342857143 177.01942857143 146.18742857143 177.53142857143 144.26742857143 177.53142857143 C 142.28342857143 177.53142857143 140.74742857143 177.01942857143 139.65942857143 175.99542857143 Z M 163.75542857143 175.99542857143 C 162.60342857143 174.97142857143 162.02742857143 173.56342857143 162.02742857143 171.77142857143 L 162.02742857143 114.17142857143 C 162.02742857143 112.37942857143 162.60342857143 110.97142857143 163.75542857143 109.94742857143 C 164.90742857143 108.92342857143 166.44342857143 108.41142857143 168.36342857143 108.41142857143 C 170.28342857143 108.41142857143 171.83542857143 108.93942857143 173.01942857143 109.99542857143 C 174.20342857143 111.05142857143 174.79542857143 112.44342857143 174.79542857143 114.17142857143 L 174.79542857143 137.11542857143 L 209.25942857143 137.11542857143 L 209.25942857143 114.17142857143 C 209.25942857143 112.44342857143 209.85142857143 111.05142857143 211.03542857143 109.99542857143 C 212.21942857143 108.93942857143 213.77142857143 108.41142857143 215.69142857143 108.41142857143 C 217.61142857143 108.41142857143 219.14742857143 108.92342857143 220.29942857143 109.94742857143 C 221.45142857143 110.97142857143 222.02742857143 112.37942857143 222.02742857143 114.17142857143 L 222.02742857143 171.77142857143 C 222.02742857143 173.56342857143 221.45142857143 174.97142857143 220.29942857143 175.99542857143 C 219.14742857143 177.01942857143 217.61142857143 177.53142857143 215.69142857143 177.53142857143 C 213.77142857143 177.53142857143 212.21942857143 177.00342857143 211.03542857143 175.94742857143 C 209.85142857143 174.89142857143 209.25942857143 173.49942857143 209.25942857143 171.77142857143 L 209.25942857143 147.00342857143 L 174.79542857143 147.00342857143 L 174.79542857143 171.77142857143 C 174.79542857143 173.49942857143 174.20342857143 174.89142857143 173.01942857143 175.94742857143 C 171.83542857143 177.00342857143 170.28342857143 177.53142857143 168.36342857143 177.53142857143 C 166.44342857143 177.53142857143 164.90742857143 177.01942857143 163.75542857143 175.99542857143 Z M 234.50742857143 175.99542857143 C 233.35542857143 174.97142857143 232.77942857143 173.56342857143 232.77942857143 171.77142857143 L 232.77942857143 114.17142857143 C 232.77942857143 112.37942857143 233.35542857143 110.97142857143 234.50742857143 109.94742857143 C 235.65942857143 108.92342857143 237.19542857143 108.41142857143 239.11542857143 108.41142857143 C 241.03542857143 108.41142857143 242.58742857143 108.93942857143 243.77142857143 109.99542857143 C 244.95542857143 111.05142857143 245.54742857143 112.44342857143 245.54742857143 114.17142857143 L 245.54742857143 137.11542857143 L 280.01142857143 137.11542857143 L 280.01142857143 114.17142857143 C 280.01142857143 112.44342857143 280.60342857143 111.05142857143 281.78742857143 109.99542857143 C 282.97142857143 108.93942857143 284.52342857143 108.41142857143 286.44342857143 108.41142857143 C 288.36342857143 108.41142857143 289.89942857143 108.92342857143 291.05142857143 109.94742857143 C 292.20342857143 110.97142857143 292.77942857143 112.37942857143 292.77942857143 114.17142857143 L 292.77942857143 171.77142857143 C 292.77942857143 173.56342857143 292.20342857143 174.97142857143 291.05142857143 175.99542857143 C 289.89942857143 177.01942857143 288.36342857143 177.53142857143 286.44342857143 177.53142857143 C 284.52342857143 177.53142857143 282.97142857143 177.00342857143 281.78742857143 175.94742857143 C 280.60342857143 174.89142857143 280.01142857143 173.49942857143 280.01142857143 171.77142857143 L 280.01142857143 147.00342857143 L 245.54742857143 147.00342857143 L 245.54742857143 171.77142857143 C 245.54742857143 173.49942857143 244.95542857143 174.89142857143 243.77142857143 175.94742857143 C 242.58742857143 177.00342857143 241.03542857143 177.53142857143 239.11542857143 177.53142857143 C 237.19542857143 177.53142857143 235.65942857143 177.01942857143 234.50742857143 175.99542857143 Z M 304.77942857143 175.89942857143 C 303.62742857143 174.87542857143 303.05142857143 173.46742857143 303.05142857143 171.67542857143 L 303.05142857143 138.07542857143 C 303.05142857143 128.79542857143 305.70742857143 121.53142857143 311.01942857143 116.28342857143 C 316.33142857143 111.03542857143 323.72342857143 108.41142857143 333.19542857143 108.41142857143 C 339.40342857143 108.41142857143 344.77942857143 109.59542857143 349.32342857143 111.96342857143 C 353.86742857143 114.33142857143 357.33942857143 117.75542857143 359.73942857143 122.23542857143 C 362.13942857143 126.71542857143 363.33942857143 131.99542857143 363.33942857143 138.07542857143 L 363.33942857143 171.67542857143 C 363.33942857143 173.46742857143 362.76342857143 174.87542857143 361.61142857143 175.89942857143 C 360.45942857143 176.92342857143 358.92342857143 177.43542857143 357.00342857143 177.43542857143 C 355.08342857143 177.43542857143 353.53142857143 176.90742857143 352.34742857143 175.85142857143 C 351.16342857143 174.79542857143 350.57142857143 173.40342857143 350.57142857143 171.67542857143 L 350.57142857143 156.02742857143 L 315.81942857143 156.02742857143 L 315.81942857143 171.67542857143 C 315.81942857143 173.40342857143 315.22742857143 174.79542857143 314.04342857143 175.85142857143 C 312.85942857143 176.90742857143 311.30742857143 177.43542857143 309.38742857143 177.43542857143 C 307.46742857143 177.43542857143 305.93142857143 176.92342857143 304.77942857143 175.89942857143 Z M 350.57142857143 146.13942857143 L 350.57142857143 137.78742857143 C 350.57142857143 131.38742857143 349.11542857143 126.57142857143 346.20342857143 123.33942857143 C 343.29142857143 120.10742857143 338.95542857143 118.49142857143 333.19542857143 118.49142857143 C 321.61142857143 118.49142857143 315.81942857143 124.92342857143 315.81942857143 137.78742857143 L 315.81942857143 146.13942857143 L 350.57142857143 146.13942857143 Z"/></svg>