<svg xmlns="http://www.w3.org/2000/svg" version="1.2" viewBox="85 63 829.6 873.4">
	<title>SiHHA Logo - Original (2)-svg</title>
	<style>
		.s0 { fill: #f1f9f9 } 
		.s1 { fill: #ffffff } 
	</style>
	<g id="Layer 1">
		<path id="Layer" fill-rule="evenodd" class="s0" d="m85 624.7l0.5-0.2c-0.3 0-0.5 0.2-0.5 0.2z"/>
		<path id="Layer" fill-rule="evenodd" class="s0" d="m85 624.5v-248.7h234c-93.7 149.9-234 248.7-234 248.7z"/>
		<path id="Layer" fill-rule="evenodd" class="s1" d="m401 374.9v-2.1q-0.5 1.1-1 2.1z"/>
		<path id="Layer" fill-rule="evenodd" class="s1" d="m397.5 63c16.9 115.7-22.7 223.4-78.5 312.8-93.7 149.9-234 248.7-234 248.7h0.5c115.5-0.2 222.9-35.1 312.2-95 30.3-20.3 58.6-43.7 84.5-69.5 17.6-17.7 34-36.6 49.1-56.5l20.2-28c59.9-89.3 95-196.8 95-312.5 0 0-185.9 0-249 0z"/>
		<path id="Layer" fill-rule="evenodd" class="s0" d="m913.9 375.8v248.9h-233.9c88.4-142.1 219.1-238.5 233.3-248.9q0.6 0 0.6 0z"/>
		<path id="Layer" fill-rule="evenodd" class="s1" d="m586.8 623.4v2.2q0.5-1.1 1.1-2.2z"/>
		<path id="Layer" fill-rule="evenodd" class="s1" d="m602.1 470c-30.3 20.3-58.6 43.6-84.5 69.5-17.6 17.6-34 36.5-49.2 56.5l-20.3 27.8c-60.1 89.3-95 197-95 312.6 0 0 185.9 0 248.8 0-16.7-115.3 22.3-222.6 77.9-311.7 88.6-142.1 219.3-238.5 233.5-248.9 0.9-0.7 1.3-0.9 1.3-0.9-115.7 0-223.2 35-312.5 95.1z"/>
	</g>
</svg>