<svg width="1000" height="1000" xmlns="http://www.w3.org/2000/svg">

 <g>
  <title>Layer 1</title>
  <path id="svg_1" d="m583.93688,149.99999l-148.76454,0l0,186.88031l91.95046,0c35.85554,-53.42373 56.81408,-117.73768 56.81408,-186.88031z" fill="#6dcea1"/>
  <path id="svg_2" d="m435.17234,336.8803l-186.88031,0l0,148.76454c69.14263,0 133.45658,-20.95854 186.88031,-56.81408c18.08188,-12.22581 35.03364,-26.09544 50.44433,-41.50613c10.58201,-10.58201 20.34211,-21.88318 29.48579,-33.80078l12.02034,-16.74628l-91.95046,0l0,0.10274z" fill="#6dcea1"/>
  <path id="svg_3" d="m416.06309,653.41589l148.76454,0l0,-186.88031l-91.95046,0c-35.85554,53.42373 -56.81408,117.73768 -56.81408,186.88031z" fill="#6dcea1"/>
  <path id="svg_4" d="m564.82762,374.58513c-18.08188,12.22581 -35.03364,26.09544 -50.44433,41.50613c-10.58201,10.58201 -20.34211,21.88318 -29.48579,33.80078l-12.02034,16.74628l91.95046,0l186.88031,0l0,-148.86727c-69.14263,0 -133.45658,20.95854 -186.88031,56.81408z" fill="#6dcea1"/>
  <g id="svg_5" transform="matrix(1.027379425408184 0 0 1.027379425408184 2.246819878292233 -0.13689712704092027)" opacity="0.27">
   <path id="svg_6" d="m421.38817,328.03578l0,89.5c17.6,-11.9 34.1,-25.4 49.1,-40.4c10.3,-10.3 19.8,-21.3 28.7,-32.9l11.7,-16.3l-89.5,0l0,0.1z"/>
  </g>
  <g id="svg_7" transform="matrix(1.02738 0 0 1.02738 2.24682 -0.136897)" opacity="0.27">
   <path id="svg_8" d="m547.58817,454.23578l0,-89.5c-17.6,11.9 -34.1,25.4 -49.1,40.4c-10.3,10.3 -19.8,21.3 -28.7,32.9l-11.7,16.3l89.5,0l0,-0.1z"/>
  </g>
 </g>
</svg>